<?xml version="1.0" encoding="UTF-8" standalone="no"?>
<!DOCTYPE svg PUBLIC "-//W3C//DTD SVG 1.1//EN"
 "http://www.w3.org/Graphics/SVG/1.1/DTD/svg11.dtd">
<!-- Generated by graphviz version 2.38.0 (20140413.2041)
 -->
<!-- Title: %3 Pages: 1 -->
<svg width="1341pt" height="157pt"
 viewBox="0.00 0.00 1340.92 157.00" xmlns="http://www.w3.org/2000/svg" xmlns:xlink="http://www.w3.org/1999/xlink">
<g id="graph0" class="graph" transform="scale(1 1) rotate(0) translate(4 153)">
<title>%3</title>
<polygon fill="white" stroke="none" points="-4,4 -4,-153 1336.92,-153 1336.92,4 -4,4"/>
<!-- map; parse -->
<g id="node1" class="node"><title>map; parse</title>
<ellipse fill="white" stroke="black" cx="181.279" cy="-72" rx="50.0912" ry="18"/>
<text text-anchor="start" x="150.779" y="-68.3" font-family="Times,serif" font-size="14.00">map; parse</text>
</g>
<!-- sliding_window; 100 -->
<g id="node2" class="node"><title>sliding_window; 100</title>
<path fill="white" stroke="black" d="M375.866,-142.225C375.866,-142.225 279.282,-127.775 279.282,-127.775 273.348,-126.888 273.348,-125.112 279.282,-124.225 279.282,-124.225 375.866,-109.775 375.866,-109.775 381.8,-108.888 393.668,-108.888 399.602,-109.775 399.602,-109.775 496.185,-124.225 496.185,-124.225 502.119,-125.112 502.119,-126.888 496.185,-127.775 496.185,-127.775 399.602,-142.225 399.602,-142.225 393.668,-143.112 381.8,-143.112 375.866,-142.225"/>
<text text-anchor="start" x="330.234" y="-122.3" font-family="Times,serif" font-size="14.00">sliding_window; 100</text>
</g>
<!-- map; parse&#45;&gt;sliding_window; 100 -->
<g id="edge1" class="edge"><title>map; parse&#45;&gt;sliding_window; 100</title>
<path fill="none" stroke="black" d="M218.496,-84.2464C233.518,-89.1301 251.177,-94.6199 267.324,-99 286.539,-104.212 307.68,-109.225 326.764,-113.487"/>
<polygon fill="black" stroke="black" points="326.016,-116.906 336.535,-115.644 327.525,-110.07 326.016,-116.906"/>
</g>
<!-- sliding_window; 10 -->
<g id="node3" class="node"><title>sliding_window; 10</title>
<path fill="white" stroke="black" d="M375.879,-88.141C375.879,-88.141 284.8,-73.859 284.8,-73.859 278.872,-72.9295 278.872,-71.0705 284.8,-70.141 284.8,-70.141 375.879,-55.859 375.879,-55.859 381.806,-54.9295 393.661,-54.9295 399.589,-55.859 399.589,-55.859 490.668,-70.141 490.668,-70.141 496.596,-71.0705 496.596,-72.9295 490.668,-73.859 490.668,-73.859 399.589,-88.141 399.589,-88.141 393.661,-89.0705 381.806,-89.0705 375.879,-88.141"/>
<text text-anchor="start" x="333.234" y="-68.3" font-family="Times,serif" font-size="14.00">sliding_window; 10</text>
</g>
<!-- map; parse&#45;&gt;sliding_window; 10 -->
<g id="edge2" class="edge"><title>map; parse&#45;&gt;sliding_window; 10</title>
<path fill="none" stroke="black" d="M231.511,-72C241.191,-72 251.747,-72 262.651,-72"/>
<polygon fill="black" stroke="black" points="262.748,-75.5001 272.748,-72 262.748,-68.5001 262.748,-75.5001"/>
</g>
<!-- accumulate; count -->
<g id="node4" class="node"><title>accumulate; count</title>
<path fill="white" stroke="black" d="M433.734,-36C433.734,-36 341.734,-36 341.734,-36 335.734,-36 329.734,-30 329.734,-24 329.734,-24 329.734,-12 329.734,-12 329.734,-6 335.734,-0 341.734,-0 341.734,-0 433.734,-0 433.734,-0 439.734,-0 445.734,-6 445.734,-12 445.734,-12 445.734,-24 445.734,-24 445.734,-30 439.734,-36 433.734,-36"/>
<text text-anchor="start" x="337.734" y="-14.3" font-family="Times,serif" font-size="14.00">accumulate; count</text>
</g>
<!-- map; parse&#45;&gt;accumulate; count -->
<g id="edge3" class="edge"><title>map; parse&#45;&gt;accumulate; count</title>
<path fill="none" stroke="black" d="M218.496,-59.7536C233.518,-54.8699 251.177,-49.3801 267.324,-45 284.214,-40.4182 302.593,-35.9906 319.754,-32.092"/>
<polygon fill="black" stroke="black" points="320.707,-35.4653 329.698,-29.8605 319.174,-28.6352 320.707,-35.4653"/>
</g>
<!-- map; process -->
<g id="node5" class="node"><title>map; process</title>
<ellipse fill="white" stroke="black" cx="618.595" cy="-126" rx="57.6901" ry="18"/>
<text text-anchor="start" x="582.095" y="-122.3" font-family="Times,serif" font-size="14.00">map; process</text>
</g>
<!-- sliding_window; 100&#45;&gt;map; process -->
<g id="edge4" class="edge"><title>sliding_window; 100&#45;&gt;map; process</title>
<path fill="none" stroke="black" d="M508.192,-126C522.788,-126 537.274,-126 550.699,-126"/>
<polygon fill="black" stroke="black" points="550.743,-129.5 560.743,-126 550.743,-122.5 550.743,-129.5"/>
</g>
<!-- delay; 5 -->
<g id="node12" class="node"><title>delay; 5</title>
<path fill="white" stroke="black" d="M607.184,-86.2858C607.184,-86.2858 574.707,-75.7142 574.707,-75.7142 569.001,-73.8571 569.001,-70.1429 574.707,-68.2858 574.707,-68.2858 607.184,-57.7142 607.184,-57.7142 612.89,-55.8571 624.3,-55.8571 630.006,-57.7142 630.006,-57.7142 662.484,-68.2858 662.484,-68.2858 668.189,-70.1429 668.189,-73.8571 662.484,-75.7142 662.484,-75.7142 630.006,-86.2858 630.006,-86.2858 624.3,-88.1429 612.89,-88.1429 607.184,-86.2858"/>
<text text-anchor="start" x="596.595" y="-68.3" font-family="Times,serif" font-size="14.00">delay; 5</text>
</g>
<!-- sliding_window; 10&#45;&gt;delay; 5 -->
<g id="edge5" class="edge"><title>sliding_window; 10&#45;&gt;delay; 5</title>
<path fill="none" stroke="black" d="M502.829,-72C520.097,-72 537.374,-72 553.089,-72"/>
<polygon fill="black" stroke="black" points="553.175,-75.5001 563.175,-72 553.175,-68.5001 553.175,-75.5001"/>
</g>
<!-- Sink; report -->
<g id="node13" class="node"><title>Sink; report</title>
<path fill="white" stroke="black" d="M650.048,-36C650.048,-36 587.142,-36 587.142,-36 581.142,-36 571.231,-31.4503 567.319,-26.9006 567.319,-26.9006 552.015,-9.0994 552.015,-9.0994 548.103,-4.5497 550.192,-1.02284e-14 556.192,-9.79865e-15 556.192,-9.79865e-15 680.999,-8.59487e-16 680.999,-8.59487e-16 686.999,-4.29743e-16 689.087,-4.5497 685.176,-9.0994 685.176,-9.0994 669.871,-26.9006 669.871,-26.9006 665.96,-31.4503 656.048,-36 650.048,-36"/>
<text text-anchor="start" x="586.095" y="-14.3" font-family="Times,serif" font-size="14.00">Sink; report</text>
</g>
<!-- accumulate; count&#45;&gt;Sink; report -->
<g id="edge6" class="edge"><title>accumulate; count&#45;&gt;Sink; report</title>
<path fill="none" stroke="black" d="M445.895,-18C477.331,-18 516.536,-18 549.544,-18"/>
<polygon fill="black" stroke="black" points="549.573,-21.5001 559.573,-18 549.573,-14.5001 549.573,-21.5001"/>
</g>
<!-- map; train -->
<g id="node6" class="node"><title>map; train</title>
<ellipse fill="white" stroke="black" cx="786.892" cy="-126" rx="47.3916" ry="18"/>
<text text-anchor="start" x="758.392" y="-122.3" font-family="Times,serif" font-size="14.00">map; train</text>
</g>
<!-- map; process&#45;&gt;map; train -->
<g id="edge7" class="edge"><title>map; process&#45;&gt;map; train</title>
<path fill="none" stroke="black" d="M676.825,-126C693.709,-126 712.176,-126 729.036,-126"/>
<polygon fill="black" stroke="black" points="729.298,-129.5 739.298,-126 729.298,-122.5 729.298,-129.5"/>
</g>
<!-- zip -->
<g id="node7" class="node"><title>zip</title>
<path fill="white" stroke="black" d="M979.331,-76.0478C979.331,-76.0478 937.735,-90.9522 937.735,-90.9522 932.087,-92.9761 926.439,-89 926.439,-83 926.439,-83 926.439,-61 926.439,-61 926.439,-55 932.087,-51.0239 937.735,-53.0478 937.735,-53.0478 979.331,-67.9522 979.331,-67.9522 984.979,-69.9761 984.979,-74.0239 979.331,-76.0478"/>
<text text-anchor="start" x="939.335" y="-68.3" font-family="Times,serif" font-size="14.00">zip</text>
</g>
<!-- map; train&#45;&gt;zip -->
<g id="edge8" class="edge"><title>map; train&#45;&gt;zip</title>
<path fill="none" stroke="black" d="M822.773,-114.149C850.809,-104.624 889.793,-91.3798 916.537,-82.2937"/>
<polygon fill="black" stroke="black" points="917.796,-85.5623 926.139,-79.0314 915.544,-78.9344 917.796,-85.5623"/>
</g>
<!-- &lt;Sink; save&gt;&#45;1 -->
<g id="node8" class="node"><title>&lt;Sink; save&gt;&#45;1</title>
<path fill="white" stroke="black" d="M975.079,-149C975.079,-149 920.591,-149 920.591,-149 914.591,-149 904.911,-144.261 901.231,-139.522 901.231,-139.522 887.998,-122.478 887.998,-122.478 884.318,-117.739 886.638,-113 892.638,-113 892.638,-113 1003.03,-113 1003.03,-113 1009.03,-113 1011.35,-117.739 1007.67,-122.478 1007.67,-122.478 994.439,-139.522 994.439,-139.522 990.759,-144.261 981.079,-149 975.079,-149"/>
<text text-anchor="start" x="919.335" y="-127.3" font-family="Times,serif" font-size="14.00">Sink; save</text>
</g>
<!-- map; train&#45;&gt;&lt;Sink; save&gt;&#45;1 -->
<g id="edge9" class="edge"><title>map; train&#45;&gt;&lt;Sink; save&gt;&#45;1</title>
<path fill="none" stroke="black" d="M834.292,-127.46C849.544,-127.939 866.774,-128.481 883.084,-128.995"/>
<polygon fill="black" stroke="black" points="882.989,-132.493 893.094,-129.309 883.209,-125.497 882.989,-132.493"/>
</g>
<!-- map; predict -->
<g id="node9" class="node"><title>map; predict</title>
<ellipse fill="white" stroke="black" cx="1106.83" cy="-72" rx="55.7903" ry="18"/>
<text text-anchor="start" x="1071.83" y="-68.3" font-family="Times,serif" font-size="14.00">map; predict</text>
</g>
<!-- zip&#45;&gt;map; predict -->
<g id="edge10" class="edge"><title>zip&#45;&gt;map; predict</title>
<path fill="none" stroke="black" d="M990.906,-72C1006.18,-72 1023.81,-72 1040.6,-72"/>
<polygon fill="black" stroke="black" points="1040.93,-75.5001 1050.93,-72 1040.93,-68.5001 1040.93,-75.5001"/>
</g>
<!-- Sink; save -->
<g id="node10" class="node"><title>Sink; save</title>
<path fill="white" stroke="black" d="M1293.07,-90C1293.07,-90 1238.58,-90 1238.58,-90 1232.58,-90 1222.9,-85.2609 1219.22,-80.5218 1219.22,-80.5218 1205.98,-63.4782 1205.98,-63.4782 1202.3,-58.7391 1204.63,-54 1210.63,-54 1210.63,-54 1321.02,-54 1321.02,-54 1327.02,-54 1329.34,-58.7391 1325.66,-63.4782 1325.66,-63.4782 1312.43,-80.5218 1312.43,-80.5218 1308.75,-85.2609 1299.07,-90 1293.07,-90"/>
<text text-anchor="start" x="1237.32" y="-68.3" font-family="Times,serif" font-size="14.00">Sink; save</text>
</g>
<!-- map; predict&#45;&gt;Sink; save -->
<g id="edge11" class="edge"><title>map; predict&#45;&gt;Sink; save</title>
<path fill="none" stroke="black" d="M1162.74,-72C1175.51,-72 1189.19,-72 1202.26,-72"/>
<polygon fill="black" stroke="black" points="1202.58,-75.5001 1212.58,-72 1202.58,-68.5001 1202.58,-75.5001"/>
</g>
<!-- &lt;map; process&gt;&#45;1 -->
<g id="node11" class="node"><title>&lt;map; process&gt;&#45;1</title>
<ellipse fill="white" stroke="black" cx="786.892" cy="-72" rx="57.6901" ry="18"/>
<text text-anchor="start" x="750.392" y="-68.3" font-family="Times,serif" font-size="14.00">map; process</text>
</g>
<!-- &lt;map; process&gt;&#45;1&#45;&gt;zip -->
<g id="edge12" class="edge"><title>&lt;map; process&gt;&#45;1&#45;&gt;zip</title>
<path fill="none" stroke="black" d="M844.825,-72C868.836,-72 895.839,-72 916.029,-72"/>
<polygon fill="black" stroke="black" points="916.197,-75.5001 926.197,-72 916.197,-68.5001 916.197,-75.5001"/>
</g>
<!-- delay; 5&#45;&gt;&lt;map; process&gt;&#45;1 -->
<g id="edge13" class="edge"><title>delay; 5&#45;&gt;&lt;map; process&gt;&#45;1</title>
<path fill="none" stroke="black" d="M674.047,-72C688.362,-72 703.971,-72 718.862,-72"/>
<polygon fill="black" stroke="black" points="719.033,-75.5001 729.033,-72 719.033,-68.5001 719.033,-75.5001"/>
</g>
<!-- TextFile -->
<g id="node14" class="node"><title>TextFile</title>
<path fill="white" stroke="black" d="M91.3401,-69.5147C91.3401,-69.5147 91.3401,-74.4853 91.3401,-74.4853 91.3401,-76.9706 89.0419,-80.4019 86.7438,-81.348 86.7438,-81.348 70.3237,-88.1078 70.3237,-88.1078 68.0256,-89.0539 63.2421,-90 60.7569,-90 60.7569,-90 34.4762,-90 34.4762,-90 31.9909,-90 27.2075,-89.0539 24.9093,-88.1078 24.9093,-88.1078 8.4893,-81.348 8.4893,-81.348 6.19115,-80.4019 3.89299,-76.9706 3.89299,-74.4853 3.89299,-74.4853 3.89299,-69.5147 3.89299,-69.5147 3.89299,-67.0294 6.19115,-63.5981 8.4893,-62.652 8.4893,-62.652 24.9093,-55.8922 24.9093,-55.8922 27.2075,-54.9461 31.9909,-54 34.4762,-54 34.4762,-54 60.7569,-54 60.7569,-54 63.2421,-54 68.0256,-54.9461 70.3237,-55.8922 70.3237,-55.8922 86.7438,-62.652 86.7438,-62.652 89.0419,-63.5981 91.3401,-67.0294 91.3401,-69.5147"/>
<path fill="none" stroke="black" d="M95.3499,-68.6226C95.3499,-68.6226 95.3499,-75.3774 95.3499,-75.3774 95.3499,-78.7549 92.2267,-83.4181 89.1036,-84.7038 89.1036,-84.7038 72.7686,-91.4285 72.7686,-91.4285 69.6454,-92.7143 63.1449,-94 59.7674,-94 59.7674,-94 35.4657,-94 35.4657,-94 32.0882,-94 25.5876,-92.7143 22.4645,-91.4285 22.4645,-91.4285 6.12947,-84.7038 6.12947,-84.7038 3.00632,-83.4181 -0.116821,-78.7549 -0.116821,-75.3774 -0.116821,-75.3774 -0.116821,-68.6226 -0.116821,-68.6226 -0.116821,-65.2451 3.00632,-60.5819 6.12947,-59.2962 6.12947,-59.2962 22.4645,-52.5715 22.4645,-52.5715 25.5876,-51.2857 32.0882,-50 35.4657,-50 35.4657,-50 59.7674,-50 59.7674,-50 63.1449,-50 69.6454,-51.2857 72.7686,-52.5715 72.7686,-52.5715 89.1036,-59.2962 89.1036,-59.2962 92.2267,-60.5819 95.3499,-65.2451 95.3499,-68.6226"/>
<text text-anchor="start" x="24.6165" y="-68.3" font-family="Times,serif" font-size="14.00">TextFile</text>
</g>
<!-- TextFile&#45;&gt;map; parse -->
<g id="edge14" class="edge"><title>TextFile&#45;&gt;map; parse</title>
<path fill="none" stroke="black" d="M95.4064,-72C103.604,-72 112.232,-72 120.72,-72"/>
<polygon fill="black" stroke="black" points="120.966,-75.5001 130.966,-72 120.966,-68.5001 120.966,-75.5001"/>
</g>
</g>
</svg>
