<?xml version="1.0" encoding="UTF-8" standalone="no"?>
<!DOCTYPE svg PUBLIC "-//W3C//DTD SVG 1.1//EN"
 "http://www.w3.org/Graphics/SVG/1.1/DTD/svg11.dtd">
<!-- Generated by graphviz version 2.38.0 (20140413.2041)
 -->
<!-- Title: %3 Pages: 1 -->
<svg width="899pt" height="127pt"
 viewBox="0.00 0.00 898.52 127.00" xmlns="http://www.w3.org/2000/svg" xmlns:xlink="http://www.w3.org/1999/xlink">
<g id="graph0" class="graph" transform="scale(1 1) rotate(0) translate(4 123)">
<title>%3</title>
<polygon fill="white" stroke="none" points="-4,4 -4,-123 894.516,-123 894.516,4 -4,4"/>
<!--  sink; print  -->
<g id="node1" class="node"><title> sink; print </title>
<path fill="white" stroke="black" d="M226.789,-119C226.789,-119 164.862,-119 164.862,-119 158.862,-119 148.976,-114.428 145.09,-109.857 145.09,-109.857 130.032,-92.143 130.032,-92.143 126.146,-87.5715 128.26,-83 134.26,-83 134.26,-83 257.391,-83 257.391,-83 263.391,-83 265.505,-87.5715 261.619,-92.143 261.619,-92.143 246.561,-109.857 246.561,-109.857 242.675,-114.428 232.789,-119 226.789,-119"/>
<text text-anchor="middle" x="195.826" y="-97.3" font-family="Times,serif" font-size="14.00"> sink; print </text>
</g>
<!--  flatten  -->
<g id="node2" class="node"><title> flatten </title>
<ellipse fill="white" stroke="black" cx="733.277" cy="-47" rx="38.1938" ry="18"/>
<text text-anchor="middle" x="733.277" y="-43.3" font-family="Times,serif" font-size="14.00"> flatten </text>
</g>
<!--  Stream  -->
<g id="node6" class="node"><title> Stream </title>
<ellipse fill="white" stroke="black" cx="849.57" cy="-18" rx="40.8928" ry="18"/>
<text text-anchor="middle" x="849.57" y="-14.3" font-family="Times,serif" font-size="14.00"> Stream </text>
</g>
<!--  flatten &#45;&gt; Stream  -->
<g id="edge1" class="edge"><title> flatten &#45;&gt; Stream </title>
<path fill="none" stroke="black" d="M767.335,-38.612C778.666,-35.7369 791.544,-32.4693 803.654,-29.3967"/>
<polygon fill="black" stroke="black" points="804.762,-32.7266 813.594,-26.8746 803.04,-25.9416 804.762,-32.7266"/>
</g>
<!--  unique  -->
<g id="node3" class="node"><title> unique </title>
<ellipse fill="white" stroke="black" cx="39.6465" cy="-47" rx="39.7935" ry="18"/>
<text text-anchor="middle" x="39.6465" y="-43.3" font-family="Times,serif" font-size="14.00"> unique </text>
</g>
<!--  unique &#45;&gt; sink; print  -->
<g id="edge2" class="edge"><title> unique &#45;&gt; sink; print </title>
<path fill="none" stroke="black" d="M71.4764,-57.7979C89.3087,-64.0435 112.382,-72.1246 133.74,-79.6052"/>
<polygon fill="black" stroke="black" points="132.813,-82.9889 143.407,-82.9912 135.127,-76.3824 132.813,-82.9889"/>
<text text-anchor="middle" x="100.793" y="-72.8" font-family="Times,serif" font-size="14.00">0</text>
</g>
<!--  map; get  -->
<g id="node4" class="node"><title> map; get </title>
<ellipse fill="white" stroke="black" cx="195.826" cy="-47" rx="46.5926" ry="18"/>
<text text-anchor="middle" x="195.826" y="-43.3" font-family="Times,serif" font-size="14.00"> map; get </text>
</g>
<!--  unique &#45;&gt; map; get  -->
<g id="edge3" class="edge"><title> unique &#45;&gt; map; get </title>
<path fill="none" stroke="black" d="M79.5524,-47C97.4803,-47 119.094,-47 138.739,-47"/>
<polygon fill="black" stroke="black" points="138.802,-50.5001 148.802,-47 138.802,-43.5001 138.802,-50.5001"/>
<text text-anchor="middle" x="100.793" y="-50.8" font-family="Times,serif" font-size="14.00">1</text>
</g>
<!--  map; lambda  -->
<g id="node7" class="node"><title> map; lambda </title>
<ellipse fill="white" stroke="black" cx="368.753" cy="-47" rx="62.2891" ry="18"/>
<text text-anchor="middle" x="368.753" y="-43.3" font-family="Times,serif" font-size="14.00"> map; lambda </text>
</g>
<!--  map; get &#45;&gt; map; lambda  -->
<g id="edge4" class="edge"><title> map; get &#45;&gt; map; lambda </title>
<path fill="none" stroke="black" d="M242.631,-47C258.992,-47 277.844,-47 295.87,-47"/>
<polygon fill="black" stroke="black" points="296.069,-50.5001 306.069,-47 296.069,-43.5001 296.069,-50.5001"/>
</g>
<!--  map; get_list_of_links  -->
<g id="node5" class="node"><title> map; get_list_of_links </title>
<ellipse fill="white" stroke="black" cx="563.039" cy="-47" rx="94.7833" ry="18"/>
<text text-anchor="middle" x="563.039" y="-43.3" font-family="Times,serif" font-size="14.00"> map; get_list_of_links </text>
</g>
<!--  map; get_list_of_links &#45;&gt; flatten  -->
<g id="edge5" class="edge"><title> map; get_list_of_links &#45;&gt; flatten </title>
<path fill="none" stroke="black" d="M657.995,-47C667.098,-47 676.045,-47 684.402,-47"/>
<polygon fill="black" stroke="black" points="684.639,-50.5001 694.639,-47 684.639,-43.5001 684.639,-50.5001"/>
</g>
<!--  Stream &#45;&gt; unique  -->
<g id="edge6" class="edge"><title> Stream &#45;&gt; unique </title>
<path fill="none" stroke="black" d="M812.74,-9.89831C790.317,-5.51978 760.757,-1 734.277,-1 194.826,-1 194.826,-1 194.826,-1 152.985,-1 107.323,-16.7485 76.6358,-29.8161"/>
<polygon fill="black" stroke="black" points="74.9768,-26.7217 67.2225,-33.9413 77.7865,-33.1331 74.9768,-26.7217"/>
</g>
<!--  map; lambda &#45;&gt; map; get_list_of_links  -->
<g id="edge7" class="edge"><title> map; lambda &#45;&gt; map; get_list_of_links </title>
<path fill="none" stroke="black" d="M431.387,-47C439.847,-47 448.718,-47 457.685,-47"/>
<polygon fill="black" stroke="black" points="457.833,-50.5001 467.833,-47 457.833,-43.5001 457.833,-50.5001"/>
</g>
</g>
</svg>
