<?xml version="1.0" encoding="UTF-8" standalone="no"?>
<!DOCTYPE svg PUBLIC "-//W3C//DTD SVG 1.1//EN"
 "http://www.w3.org/Graphics/SVG/1.1/DTD/svg11.dtd">
<!-- Generated by graphviz version 2.38.0 (20140413.2041)
 -->
<!-- Title: %3 Pages: 1 -->
<svg width="703pt" height="52pt"
 viewBox="0.00 0.00 702.50 52.00" xmlns="http://www.w3.org/2000/svg" xmlns:xlink="http://www.w3.org/1999/xlink">
<g id="graph0" class="graph" transform="scale(1 1) rotate(0) translate(4 48)">
<title>%3</title>
<polygon fill="white" stroke="none" points="-4,4 -4,-48 698.502,-48 698.502,4 -4,4"/>
<!-- map; process -->
<g id="node1" class="node"><title>map; process</title>
<ellipse fill="white" stroke="black" cx="466.46" cy="-22" rx="57.6901" ry="18"/>
<text text-anchor="start" x="429.96" y="-18.3" font-family="Times,serif" font-size="14.00">map; process</text>
</g>
<!-- Sink; save -->
<g id="node2" class="node"><title>Sink; save</title>
<path fill="white" stroke="black" d="M654.647,-40C654.647,-40 600.159,-40 600.159,-40 594.159,-40 584.479,-35.2609 580.799,-30.5218 580.799,-30.5218 567.566,-13.4782 567.566,-13.4782 563.886,-8.73912 566.206,-4 572.206,-4 572.206,-4 682.6,-4 682.6,-4 688.6,-4 690.92,-8.73912 687.241,-13.4782 687.241,-13.4782 674.007,-30.5218 674.007,-30.5218 670.327,-35.2609 660.647,-40 654.647,-40"/>
<text text-anchor="start" x="598.903" y="-18.3" font-family="Times,serif" font-size="14.00">Sink; save</text>
</g>
<!-- map; process&#45;&gt;Sink; save -->
<g id="edge1" class="edge"><title>map; process&#45;&gt;Sink; save</title>
<path fill="none" stroke="black" d="M524.393,-22C537.185,-22 550.827,-22 563.835,-22"/>
<polygon fill="black" stroke="black" points="564.103,-25.5001 574.103,-22 564.103,-18.5001 564.103,-25.5001"/>
</g>
<!-- filter; select -->
<g id="node3" class="node"><title>filter; select</title>
<ellipse fill="white" stroke="black" cx="319.97" cy="-22" rx="52.7911" ry="18"/>
<text text-anchor="start" x="287.47" y="-18.3" font-family="Times,serif" font-size="14.00">filter; select</text>
</g>
<!-- filter; select&#45;&gt;map; process -->
<g id="edge2" class="edge"><title>filter; select&#45;&gt;map; process</title>
<path fill="none" stroke="black" d="M372.726,-22C380.901,-22 389.457,-22 397.927,-22"/>
<polygon fill="black" stroke="black" points="398.183,-25.5001 408.183,-22 398.183,-18.5001 398.183,-25.5001"/>
</g>
<!-- map; parse -->
<g id="node4" class="node"><title>map; parse</title>
<ellipse fill="white" stroke="black" cx="181.279" cy="-22" rx="50.0912" ry="18"/>
<text text-anchor="start" x="150.779" y="-18.3" font-family="Times,serif" font-size="14.00">map; parse</text>
</g>
<!-- map; parse&#45;&gt;filter; select -->
<g id="edge3" class="edge"><title>map; parse&#45;&gt;filter; select</title>
<path fill="none" stroke="black" d="M231.627,-22C239.782,-22 248.329,-22 256.751,-22"/>
<polygon fill="black" stroke="black" points="256.927,-25.5001 266.927,-22 256.927,-18.5001 256.927,-25.5001"/>
</g>
<!-- TextFile -->
<g id="node5" class="node"><title>TextFile</title>
<path fill="white" stroke="black" d="M91.3401,-19.5147C91.3401,-19.5147 91.3401,-24.4853 91.3401,-24.4853 91.3401,-26.9706 89.0419,-30.4019 86.7438,-31.348 86.7438,-31.348 70.3237,-38.1078 70.3237,-38.1078 68.0256,-39.0539 63.2421,-40 60.7569,-40 60.7569,-40 34.4762,-40 34.4762,-40 31.9909,-40 27.2075,-39.0539 24.9093,-38.1078 24.9093,-38.1078 8.4893,-31.348 8.4893,-31.348 6.19115,-30.4019 3.89299,-26.9706 3.89299,-24.4853 3.89299,-24.4853 3.89299,-19.5147 3.89299,-19.5147 3.89299,-17.0294 6.19115,-13.5981 8.4893,-12.652 8.4893,-12.652 24.9093,-5.8922 24.9093,-5.8922 27.2075,-4.9461 31.9909,-4 34.4762,-4 34.4762,-4 60.7569,-4 60.7569,-4 63.2421,-4 68.0256,-4.9461 70.3237,-5.8922 70.3237,-5.8922 86.7438,-12.652 86.7438,-12.652 89.0419,-13.5981 91.3401,-17.0294 91.3401,-19.5147"/>
<path fill="none" stroke="black" d="M95.3499,-18.6226C95.3499,-18.6226 95.3499,-25.3774 95.3499,-25.3774 95.3499,-28.7549 92.2267,-33.4181 89.1036,-34.7038 89.1036,-34.7038 72.7686,-41.4285 72.7686,-41.4285 69.6454,-42.7143 63.1449,-44 59.7674,-44 59.7674,-44 35.4657,-44 35.4657,-44 32.0882,-44 25.5876,-42.7143 22.4645,-41.4285 22.4645,-41.4285 6.12947,-34.7038 6.12947,-34.7038 3.00632,-33.4181 -0.116821,-28.7549 -0.116821,-25.3774 -0.116821,-25.3774 -0.116821,-18.6226 -0.116821,-18.6226 -0.116821,-15.2451 3.00632,-10.5819 6.12947,-9.29621 6.12947,-9.29621 22.4645,-2.57146 22.4645,-2.57146 25.5876,-1.28573 32.0882,-3.23537e-15 35.4657,-2.91803e-15 35.4657,-2.91803e-15 59.7674,-6.34679e-16 59.7674,-6.34679e-16 63.1449,-3.17339e-16 69.6454,-1.28573 72.7686,-2.57146 72.7686,-2.57146 89.1036,-9.29621 89.1036,-9.29621 92.2267,-10.5819 95.3499,-15.2451 95.3499,-18.6226"/>
<text text-anchor="start" x="24.6165" y="-18.3" font-family="Times,serif" font-size="14.00">TextFile</text>
</g>
<!-- TextFile&#45;&gt;map; parse -->
<g id="edge4" class="edge"><title>TextFile&#45;&gt;map; parse</title>
<path fill="none" stroke="black" d="M95.4064,-22C103.604,-22 112.232,-22 120.72,-22"/>
<polygon fill="black" stroke="black" points="120.966,-25.5001 130.966,-22 120.966,-18.5001 120.966,-25.5001"/>
</g>
</g>
</svg>
